<svg xmlns="http://www.w3.org/2000/svg" version="1.1" xmlns:xlink="http://www.w3.org/1999/xlink" width="96" height="96"><svg width="96" height="96" version="1.1" viewBox="0 0 96 96" xmlns="http://www.w3.org/2000/svg">
 <ellipse cx="48.094" cy="48.067" rx="47.145" ry="47.841" fill="#fff"></ellipse>
 <path d="m48.109 3.8718c-1.3998 0.061363-2.5047 1.2187-2.9848 2.4829-0.66446 1.8017-0.43863 4.0043 0.83853 5.4777 0.29785 0.34062 0.64905 0.63822 1.05 0.84577v12.136h-4.4191c-0.89419-1.4544-1.5482-3.0816-2.1359-4.6565-0.38181-1.1351-0.84255-2.3076-0.92817-3.5288 0.06525-0.17629 0.33904-0.23417 0.4712-0.38323 1.1837-0.89071 1.7112-2.4194 1.7156-3.8738 0.07822-1.6029-0.59415-3.2608-1.8643-4.2407-1.0426-0.79169-2.587-0.64036-3.5388 0.22971-1.2615 1.0538-1.7775 2.799-1.6176 4.4128 0.0652 1.3539 0.61043 2.7787 1.7838 3.5231 0.18408 0.16932 0.53981 0.17689 0.53664 0.48648 0.7134 2.677 1.4268 5.3539 2.1402 8.0309h-2.2843c0.99247 4.9334 1.3318 9.9695 1.0482 15.004-0.1126 1.9923-0.33188 3.9695-0.63118 5.9569h9.486c1.5835 6.6944 3.167 13.389 4.7504 20.083-4.0544 1.4701-8.5027 1.5544-12.745 0.76919-2.6619-0.5035-5.2156-1.3763-7.6518-2.5489-0.33557-0.16469-0.67109-0.32949-1.0068-0.49396 0.01899 6.4836-0.76557 12.945-2.2798 19.249-0.292 1.2495-0.62951 2.4874-0.96959 3.7241 5.0975-0.0065 10.195 0.01305 15.292-0.0097 1.6818-0.05859 3.4003-0.68871 4.5281-1.9969 1.6455-1.9294 2.3093-4.542 2.2939-7.0536 0.01202-1.6454 0.20148-3.3558 1.0025-4.8185 0.53409-0.97637 1.4441-1.9131 2.6175-1.917 0.22106-0.04826 0.46036-0.10116 0.68647 0.01179 0.7026 0.31985 0.77284 1.1929 0.99788 1.8434 1.8048 6.0736 3.6102 12.147 5.4146 18.221 1.3514-4.5725 2.7046-9.1444 4.0546-13.717-4.0421-10.449-8.0847-20.897-12.127-31.346h6.2348c-0.01709-3.4981-0.30924-6.987-0.36975-10.484-0.09082-3.5043-0.04074-7.0516 0.70982-10.476h-1.2562c0.64021-2.5972 1.2804-5.1943 1.9206-7.7915 1.0639-0.59707 1.7009-1.7591 2.0106-2.9168 0.42174-1.7531-0.0011-3.7576-1.3124-5.0246-0.85383-0.9008-2.2933-1.1637-3.3784-0.54934-1.4087 0.81683-2.1884 2.4919-2.2002 4.1053-0.03179 1.4361 0.30464 3.0276 1.4518 3.9786 0.2279 0.1986 0.48469 0.36236 0.7544 0.49564-0.4057 1.8297-0.69151 3.6842-1.3915 5.405-0.3038 0.79071-0.65164 1.5471-1.0169 2.2978h-4.17v-12.133c1.1624-0.55619 1.8754-1.7873 2.0443-3.0502 0.24226-1.5196 0.03744-3.2059-0.9665-4.419-0.58764-0.84268-1.5483-1.4269-2.5884-1.3399z" fill="#0083cf"></path>
</svg><style>@media (prefers-color-scheme: light) { :root { filter: none; } }
@media (prefers-color-scheme: dark) { :root { filter: none; } }
</style></svg>