<?xml version="1.0" encoding="UTF-8" standalone="no"?>
<!-- Created with Inkscape (http://www.inkscape.org/) -->

<svg
   width="96"
   height="96"
   viewBox="0 0 96 96"
   version="1.1"
   id="svg1"
   inkscape:version="1.4.2 (ebf0e940, 2025-05-08)"
   sodipodi:docname="G.svg"
   xmlns:inkscape="http://www.inkscape.org/namespaces/inkscape"
   xmlns:sodipodi="http://sodipodi.sourceforge.net/DTD/sodipodi-0.dtd"
   xmlns="http://www.w3.org/2000/svg"
   xmlns:svg="http://www.w3.org/2000/svg">
  <sodipodi:namedview
     id="namedview1"
     pagecolor="#5d5d5d"
     bordercolor="#000000"
     borderopacity="0.78039216"
     inkscape:showpageshadow="2"
     inkscape:pageopacity="0.0"
     inkscape:pagecheckerboard="0"
     inkscape:deskcolor="#d1d1d1"
     inkscape:document-units="mm"
     inkscape:zoom="3.921343"
     inkscape:cx="43.990031"
     inkscape:cy="43.352494"
     inkscape:window-width="1680"
     inkscape:window-height="931"
     inkscape:window-x="0"
     inkscape:window-y="25"
     inkscape:window-maximized="0"
     inkscape:current-layer="layer1" />
  <defs
     id="defs1">
    <rect
       x="172.69534"
       y="259.043"
       width="345.39066"
       height="733.9552"
       id="rect1" />
  </defs>
  <g
     inkscape:label="Layer 1"
     inkscape:groupmode="layer"
     id="layer1">
    <ellipse
       style="fill:#ffffff;fill-opacity:1;stroke:none;stroke-width:0.935131;stroke-linecap:round;stroke-linejoin:round;stroke-dasharray:none;stroke-opacity:1"
       id="path4"
       cx="48.093941"
       cy="48.067162"
       rx="47.145409"
       ry="47.841156" />
    <path
       id="text3"
       style="font-weight:500;font-size:263.834px;font-family:'Stam Ashkenaz CLM';-inkscape-font-specification:'Stam Ashkenaz CLM Medium';display:inline;fill:#0083cf;stroke:none;stroke-width:0.935131;stroke-linecap:round;stroke-linejoin:round;stroke-dasharray:none;stroke-opacity:1"
       d="m 48.108904,3.8717532 c -1.399768,0.061363 -2.504732,1.2187285 -2.984759,2.4828625 -0.664463,1.8016748 -0.438632,4.0042963 0.838529,5.4776703 0.297847,0.340622 0.64905,0.638225 1.049979,0.845766 0,4.045205 0,8.090404 0,12.135609 -1.473038,0 -2.946077,0 -4.419115,0 -0.894186,-1.454383 -1.548245,-3.081618 -2.135911,-4.656478 -0.381806,-1.135088 -0.842552,-2.307555 -0.928174,-3.528848 0.06525,-0.176288 0.339043,-0.234173 0.471195,-0.383231 1.183726,-0.89071 1.711245,-2.419434 1.715604,-3.873772 0.07822,-1.602893 -0.594151,-3.260814 -1.864337,-4.2406611 -1.0426,-0.7916857 -2.587027,-0.6403586 -3.538848,0.2297129 -1.261532,1.0537502 -1.777534,2.7990232 -1.617571,4.4128462 0.0652,1.353911 0.610431,2.778699 1.783831,3.523087 0.184075,0.169325 0.539809,0.176887 0.536636,0.486483 0.713401,2.676952 1.426799,5.353904 2.140202,8.030861 -0.761431,0 -1.522864,0 -2.284296,0 0.992473,4.933438 1.331843,9.969494 1.048172,15.003619 -0.112597,1.992313 -0.33188,3.969474 -0.631176,5.956915 3.161999,0 6.323997,0 9.486002,0 1.583481,6.694397 3.166956,13.388794 4.750431,20.08319 -4.054384,1.470058 -8.502672,1.554365 -12.74543,0.769186 -2.661854,-0.503503 -5.215587,-1.376322 -7.651843,-2.54888 -0.33557,-0.164687 -0.67109,-0.329488 -1.006766,-0.493959 0.01899,6.483648 -0.765573,12.944994 -2.279832,19.249272 -0.292,1.24952 -0.629508,2.487359 -0.969587,3.72411 5.097454,-0.0065 10.195187,0.01305 15.292463,-0.0097 1.681781,-0.05859 3.400303,-0.688713 4.528069,-1.996865 1.645469,-1.929407 2.309294,-4.542007 2.29387,-7.053565 0.01202,-1.645417 0.201478,-3.355774 1.002492,-4.818459 0.534089,-0.976373 1.444058,-1.913111 2.617511,-1.917031 0.221062,-0.04826 0.460358,-0.101155 0.686474,0.01179 0.7026,0.319853 0.772838,1.192923 0.997877,1.843358 1.804817,6.073614 3.610152,12.147062 5.414633,18.220773 1.35141,-4.572468 2.704626,-9.1444 4.054561,-13.717313 -4.042089,-10.448723 -8.084684,-20.897246 -12.126961,-31.34589 2.078272,0 4.156543,0 6.23482,0 -0.01709,-3.498108 -0.309238,-6.986985 -0.36975,-10.48409 -0.09082,-3.504347 -0.04074,-7.051554 0.709819,-10.476443 -0.418746,0 -0.837492,0 -1.256232,0 0.640207,-2.597153 1.280414,-5.1943 1.920627,-7.791452 1.063933,-0.597074 1.700903,-1.759119 2.010648,-2.916812 0.421737,-1.753102 -0.0011,-3.757551 -1.312419,-5.0246247 -0.853834,-0.9007969 -2.293254,-1.1636728 -3.378446,-0.5493406 -1.408692,0.8168341 -2.188395,2.4918683 -2.200178,4.1052693 -0.03179,1.436144 0.304645,3.027648 1.451796,3.978579 0.227905,0.198596 0.484693,0.362365 0.754405,0.49564 -0.405698,1.829722 -0.691512,3.684196 -1.391507,5.40498 -0.303802,0.790712 -0.651643,1.547111 -1.016925,2.297761 -1.389985,0 -2.77997,0 -4.169956,0 0,-4.044317 0,-8.088633 0,-12.132949 C 50.781902,12.124544 51.49498,10.893451 51.66382,9.6305651 51.906085,8.1109842 51.70126,6.4246877 50.697316,5.2116111 50.109672,4.3689339 49.149037,3.784673 48.108904,3.8717316 Z" />
  </g>
</svg>
